<svg width="32" height="33" viewBox="0 0 32 33" fill="none" xmlns="http://www.w3.org/2000/svg">
<path fill-rule="evenodd" clip-rule="evenodd" d="M9.71887 7.48761C9.57862 7.48761 9.44658 7.54275 9.35116 7.637C9.25615 7.73083 9.20508 7.85544 9.20508 7.98271V12.468C9.20508 14.1814 9.8941 15.8271 11.1247 17.0425C11.7341 17.6444 12.4583 18.1225 13.2562 18.4489C14.0541 18.7754 14.9097 18.9435 15.774 18.9435C17.5202 18.9435 19.1924 18.2583 20.4234 17.0425C21.654 15.8271 22.343 14.1814 22.343 12.468V7.98271C22.343 7.85544 22.2919 7.73083 22.1969 7.637C22.1015 7.54275 21.9694 7.48761 21.8292 7.48761H9.71887ZM7.94576 6.21403C8.41811 5.74751 9.05615 5.48761 9.71887 5.48761H21.8292C22.4919 5.48761 23.1299 5.74751 23.6023 6.21403C24.0751 6.68097 24.343 7.31693 24.343 7.98271V12.468C24.343 14.7199 23.4371 16.877 21.8288 18.4655C20.2209 20.0536 18.0427 20.9435 15.774 20.9435C14.6505 20.9435 13.5376 20.725 12.4989 20.3C11.4601 19.8751 10.5155 19.2519 9.71927 18.4655C8.11093 16.877 7.20508 14.7199 7.20508 12.468V7.98271C7.20508 7.31693 7.47298 6.68097 7.94576 6.21403Z" fill="#323738"/>
<path d="M14.092 19.9434V24.7894C14.092 24.8998 14.1816 24.9894 14.292 24.9894H17.256C17.3665 24.9894 17.456 24.8998 17.456 24.7894V19.9434" stroke="#323738" stroke-width="2" stroke-linecap="round"/>
<path d="M23.7634 7.54669H27.4957C27.5245 7.54669 27.5479 7.57008 27.5479 7.59893V10.9107C27.5479 13.6975 25.2888 15.9566 22.502 15.9566V15.9566" stroke="#323738" stroke-width="2" stroke-linecap="round"/>
<path d="M7.78441 7.54669H4.05217C4.02332 7.54669 3.99993 7.57008 3.99993 7.59893V10.9107C3.99993 13.6975 6.25909 15.9566 9.0459 15.9566V15.9566" stroke="#323738" stroke-width="2" stroke-linecap="round"/>
<path d="M10.4747 25.0784C10.5118 25.0228 10.5742 24.9894 10.6411 24.9894H20.5189C20.5858 24.9894 20.6483 25.0228 20.6853 25.0784L22.1007 27.2014C22.1893 27.3343 22.094 27.5124 21.9343 27.5124H9.22575C9.06602 27.5124 8.97074 27.3343 9.05934 27.2014L10.4747 25.0784Z" stroke="#323738" stroke-width="2" stroke-linecap="round"/>
</svg>
